<?xml version="1.0" encoding="UTF-8"?>
<svg id="uuid-08a63fdc-a505-4b3b-b3b6-f97aafdf4af5" data-name="Layer 1" xmlns="http://www.w3.org/2000/svg" viewBox="0 0 21 14">
  <g id="uuid-7ee97d7b-f22d-4944-9c11-42344f6792d3" data-name="Symbols">
    <g id="uuid-e56b88e3-5906-4fd9-90cb-3212da82ffcf" data-name="Nav-/-Footer">
      <g id="uuid-a2c01a1a-81c5-4b2a-aff4-db745f43a661" data-name="Navigation/footer">
        <g id="uuid-72ed2d8d-4d72-403f-a3c2-d9337ffe163e" data-name="Group">
          <g id="uuid-085d362b-5067-4843-9b2e-a36919d853b8" data-name="Social-Icons">
            <path id="uuid-72261185-90f4-4433-b21b-9098a358c477" data-name="social share icn youtube" d="M17.85.2c.41.05,1.31.05,2.1.84.63.6.83,1.98.83,1.98,0,0,.21,1.61.21,3.22v1.51c0,1.61-.21,3.22-.21,3.22,0,0-.2,1.37-.83,1.98-.8.79-1.69.8-2.1.84-.6.04-1.27.07-1.94.1l-.76.03c-1.95.06-3.83.08-4.44.08h-.2s0,0,0,0h-.01s-.09,0-.09,0c-.38,0-1.82-.02-3.35-.05h-.51c-1.27-.04-2.52-.09-3.19-.15-.47-.08-1.52-.06-2.32-.85-.63-.6-.83-1.98-.83-1.98,0,0-.21-1.61-.21-3.22v-1.51c0-1.61.21-3.22.21-3.22,0,0,.2-1.37.83-1.98C1.84.25,2.74.25,3.15.2,5.64.03,9.17,0,10.2,0h.59c1.03,0,4.57.03,7.06.2ZM8,4v6s6-2.99,6-2.99l-6-3.01Z" style="fill: #010035; fill-rule: evenodd;"/>
          </g>
        </g>
      </g>
    </g>
  </g>
</svg>