<svg width="21" height="20" viewBox="0 0 21 20" fill="none" xmlns="http://www.w3.org/2000/svg">
<path fill-rule="evenodd" clip-rule="evenodd" d="M16.4052 4.0889C15.6348 3.31809 14.7195 2.70729 13.712 2.29164C12.7046 1.87599 11.6249 1.66372 10.535 1.66703C5.96139 1.66703 2.23818 5.37164 2.23632 9.92594C2.23429 11.3761 2.61656 12.801 3.3442 14.0554L2.16675 18.3337L6.56592 17.1852C7.78364 17.8449 9.14677 18.1902 10.5317 18.1897H10.535C15.1083 18.1897 18.8312 14.4847 18.8334 9.93078C18.8362 8.84468 18.6229 7.76887 18.206 6.76595C17.7892 5.76304 17.177 4.85304 16.4052 4.0889ZM10.535 16.7957H10.5321C9.29746 16.7961 8.0853 16.4657 7.02165 15.8389L6.76979 15.6901L4.1593 16.3716L4.8561 13.8385L4.69204 13.5781C4.00171 12.4852 3.63596 11.2186 3.63736 9.92594C3.63736 6.14135 6.73296 3.06212 10.5376 3.06212C12.3628 3.05886 14.1145 3.78069 15.4075 5.06885C16.7004 6.35702 17.4288 8.10601 17.4324 9.93115C17.4309 13.7161 14.3367 16.7957 10.535 16.7957ZM14.3181 11.6547C14.1109 11.5513 13.0905 11.0521 12.9015 10.9832C12.7125 10.9144 12.573 10.8798 12.435 11.0867C12.2969 11.2935 11.8992 11.7563 11.7783 11.8958C11.6574 12.0353 11.5365 12.0506 11.3293 11.9471C11.1221 11.8437 10.4536 11.6261 9.66153 10.923C9.04509 10.3757 8.62916 9.70012 8.50826 9.49365C8.38735 9.28718 8.49524 9.1752 8.59903 9.07252C8.69241 8.97989 8.80625 8.83145 8.91004 8.71091C9.01384 8.59038 9.04843 8.50407 9.11726 8.36642C9.18608 8.22877 9.15186 8.10824 9.10014 8.00519C9.04843 7.90214 8.63363 6.88614 8.46101 6.47282C8.29248 6.07029 8.12172 6.12498 7.99449 6.11866C7.87358 6.11271 7.73408 6.11122 7.5968 6.11122C7.49186 6.11395 7.3886 6.13829 7.29348 6.18271C7.19837 6.22713 7.11343 6.29068 7.04397 6.3694C6.85387 6.57625 6.31816 7.07624 6.31816 8.09112C6.31816 9.106 7.0622 10.0881 7.16488 10.2258C7.26756 10.3634 8.62693 12.4479 10.7069 13.3419C11.0931 13.5073 11.4878 13.6523 11.8892 13.7764C12.3859 13.9334 12.8379 13.9114 13.195 13.8582C13.5934 13.7991 14.4227 13.359 14.5949 12.8768C14.7672 12.3947 14.7675 11.9817 14.7158 11.8958C14.6641 11.8099 14.5257 11.7578 14.3181 11.6547Z" fill="#3570D2"/>
</svg>
